<svg width="100" height="101" viewBox="0 0 100 101" fill="none" xmlns="http://www.w3.org/2000/svg">
<g filter="url(#filter0_dd_151_192)">
<path d="M50 23.4167L75 42.1667V79.6667H25V42.1667L50 23.4167ZM50 13L16.6667 38V88H83.3334V38L50 13ZM47.9167 40.0833V52.5833H45.8334V40.0833H41.6667V52.5833H39.5834V40.0833H35.4167V52.5833C35.4167 56.0417 38.2084 58.8333 41.6667 58.8333V75.5H45.8334V58.8333C49.2917 58.8333 52.0834 56.0417 52.0834 52.5833V40.0833H47.9167ZM54.1667 48.4167V60.9167H58.3334V75.5H62.5V40.0833C57.9167 40.0833 54.1667 43.8333 54.1667 48.4167Z" fill="#006B5C"/>
</g>
<defs>
<filter id="filter0_dd_151_192" x="-8" y="-5.5" width="116" height="116" filterUnits="userSpaceOnUse" color-interpolation-filters="sRGB">
<feFlood flood-opacity="0" result="BackgroundImageFix"/>
<feColorMatrix in="SourceAlpha" type="matrix" values="0 0 0 0 0 0 0 0 0 0 0 0 0 0 0 0 0 0 127 0" result="hardAlpha"/>
<feMorphology radius="2" operator="dilate" in="SourceAlpha" result="effect1_dropShadow_151_192"/>
<feOffset dy="2"/>
<feGaussianBlur stdDeviation="3"/>
<feColorMatrix type="matrix" values="0 0 0 0 0 0 0 0 0 0 0 0 0 0 0 0 0 0 0.15 0"/>
<feBlend mode="normal" in2="BackgroundImageFix" result="effect1_dropShadow_151_192"/>
<feColorMatrix in="SourceAlpha" type="matrix" values="0 0 0 0 0 0 0 0 0 0 0 0 0 0 0 0 0 0 127 0" result="hardAlpha"/>
<feOffset dy="1"/>
<feGaussianBlur stdDeviation="1"/>
<feColorMatrix type="matrix" values="0 0 0 0 0 0 0 0 0 0 0 0 0 0 0 0 0 0 0.3 0"/>
<feBlend mode="normal" in2="effect1_dropShadow_151_192" result="effect2_dropShadow_151_192"/>
<feBlend mode="normal" in="SourceGraphic" in2="effect2_dropShadow_151_192" result="shape"/>
</filter>
</defs>
</svg>
