<svg width="36" height="64" viewBox="0 0 36 64" fill="none" xmlns="http://www.w3.org/2000/svg">
<g id="Frame" clip-path="url(#clip0_54300_23993)">
<g id="Symbols">
<g id="Head/Front/Chongo">
<g id="Head">
<path id="Vector" fill-rule="evenodd" clip-rule="evenodd" d="M14.692 39.2388C11.7817 35.8313 9.81199 31.6553 10.1411 26.976C11.0895 13.4937 29.9043 16.4597 33.5642 23.2644C37.2241 30.0691 36.7892 47.3298 32.0591 48.546C30.1728 49.031 26.1543 47.8429 22.0645 45.3839L24.6316 63.5H9.47369L14.692 39.2388Z" fill="#B28B67"/>
</g>
<path id="hair" fill-rule="evenodd" clip-rule="evenodd" d="M27.5769 15.8531C25.5056 15.2231 22.4989 15.0094 21.2341 15.154C21.9536 13.4344 22.2391 11.5187 22.0063 9.65332C21.7801 7.8408 20.9682 6.29749 20.2173 4.68029C19.8711 3.93486 19.4789 3.1935 18.894 2.62334C18.2983 2.04246 17.5441 1.65903 16.7533 1.4761C15.944 1.28886 15.0978 1.30445 14.2873 1.47437C13.9287 1.54954 13.607 1.71306 13.2554 1.80397C12.8952 1.89711 12.7206 1.67228 12.4592 1.44634C11.8293 0.901923 10.9058 0.633168 10.109 0.536981C9.21487 0.429114 8.28714 0.563643 7.43444 0.856826C6.60447 1.14224 5.80714 1.6057 5.20707 2.28089C4.93989 2.58144 4.69737 2.92353 4.53975 3.30122C4.47511 3.45621 4.46442 3.54803 4.30937 3.60481C4.16596 3.65737 3.99824 3.6589 3.85024 3.70892C2.41919 4.1924 1.19565 5.29535 0.529439 6.71149C0.140757 7.53767 -0.0433577 8.99226 0.00707092 10.6226C0.0574995 12.253 1.53332 16.5071 2.91366 18.0588C4.14575 19.4438 5.95678 20.3578 7.70457 20.7579C6.54447 22.0806 5.77223 23.7334 5.20117 25.4144C4.5809 27.2404 4.197 29.1377 4.05524 31.0708C3.92058 32.9075 3.90811 34.8498 4.33978 36.6473C4.74359 38.3283 5.60716 39.7072 7.04881 40.582C7.70916 40.9828 8.41966 41.2838 9.13427 41.559C9.83853 41.8301 10.5449 42.0938 11.2826 42.2459C12.6788 42.5338 14.2876 42.4844 15.3631 41.3758C15.7507 40.9762 16.177 40.474 16.4598 39.9858C16.5615 39.8103 16.6228 39.6954 16.4992 39.5238C16.3512 39.3183 16.1118 39.1608 15.9217 39C14.8376 38.0833 14.1665 36.8595 13.9973 35.4051C13.8257 33.9294 14.2231 32.0247 15.6614 31.3807C17.4368 30.5857 19.3921 31.4983 20.9701 32.3489C21.6408 29.9878 23.0178 27.8618 25.1768 26.7788C27.5653 25.5806 30.3061 25.4404 32.7607 24.4124C33.4003 24.1445 34.0517 23.8404 34.5227 23.2945C34.7194 23.0664 34.9503 22.7705 35.0289 22.4688C35.1321 22.0724 34.8759 21.7401 34.6779 21.4312C33.6283 19.7929 29.6481 16.4831 27.5769 15.8531Z" fill="#006B5C"/>
</g>
</g>
</g>
<defs>
<clipPath id="clip0_54300_23993">
<rect width="36" height="63" fill="white" transform="translate(0 0.5)"/>
</clipPath>
</defs>
</svg>
