<svg width="36" height="63" viewBox="0 0 36 63" fill="none" xmlns="http://www.w3.org/2000/svg">
<g clip-path="url(#clip0_128_8460)">
<path fill-rule="evenodd" clip-rule="evenodd" d="M14.6919 38.7388C11.7817 35.3313 9.81193 31.1553 10.1411 26.476C11.0894 12.9937 29.9043 15.9597 33.5642 22.7644C37.224 29.5691 36.7892 46.8298 32.0591 48.046C30.1727 48.531 26.1543 47.3429 22.0644 44.8839L24.6315 63H9.47363L14.6919 38.7388Z" fill="#B28B67"/>
<path fill-rule="evenodd" clip-rule="evenodd" d="M27.577 15.3531C25.5057 14.7231 22.4991 14.5094 21.2342 14.654C21.9537 12.9344 22.2392 11.0187 22.0065 9.15332C21.7802 7.3408 20.9683 5.79749 20.2174 4.18029C19.8713 3.43486 19.479 2.6935 18.8941 2.12334C18.2984 1.54246 17.5442 1.15903 16.7534 0.976101C15.9441 0.788856 15.0979 0.804447 14.2874 0.974374C13.9288 1.04954 13.6071 1.21306 13.2555 1.30397C12.8954 1.39711 12.7207 1.17228 12.4593 0.94634C11.8294 0.401923 10.906 0.133168 10.1091 0.0369813C9.21499 -0.0708864 8.28726 0.0636435 7.43456 0.356826C6.60459 0.642239 5.80726 1.1057 5.2072 1.78089C4.94001 2.08144 4.69749 2.42353 4.53987 2.80122C4.47523 2.95621 4.46454 3.04803 4.30949 3.10481C4.16608 3.15737 3.99836 3.1589 3.85036 3.20892C2.41931 3.6924 1.19577 4.79535 0.529562 6.21149C0.140879 7.03767 -0.0432357 8.49226 0.00719299 10.1226C0.0576216 11.753 1.53344 16.0071 2.91378 17.5588C4.14587 18.9438 5.9569 19.8578 7.70469 20.2579C6.54459 21.5806 5.77235 23.2334 5.20129 24.9144C4.58102 26.7404 4.19712 28.6377 4.05536 30.5708C3.92071 32.4075 3.90823 34.3498 4.3399 36.1473C4.74372 37.8283 5.60729 39.2072 7.04893 40.082C7.70929 40.4828 8.41979 40.7838 9.13439 41.059C9.83865 41.3301 10.545 41.5938 11.2828 41.7459C12.679 42.0338 14.2877 41.9844 15.3632 40.8758C15.7508 40.4762 16.1771 39.974 16.4599 39.4858C16.5616 39.3103 16.6229 39.1954 16.4993 39.0238C16.3513 38.8183 16.112 38.6608 15.9219 38.5C14.8377 37.5833 14.1666 36.3595 13.9974 34.9051C13.8258 33.4294 14.2232 31.5247 15.6615 30.8807C17.4369 30.0857 19.3922 30.9983 20.9702 31.8489C21.6409 29.4878 23.0179 27.3618 25.1769 26.2788C27.5654 25.0806 30.3062 24.9404 32.7608 23.9124C33.4004 23.6445 34.0519 23.3404 34.5228 22.7945C34.7196 22.5664 34.9504 22.2705 35.029 21.9688C35.1322 21.5724 34.876 21.2401 34.678 20.9312C33.6285 19.2929 29.6482 15.9831 27.577 15.3531Z" fill="#006B5C"/>
</g>
<defs>
<clipPath id="clip0_128_8460">
<rect width="36" height="63" fill="white"/>
</clipPath>
</defs>
</svg>
